<svg width="1933" height="412" viewBox="0 0 1933 412" fill="none" xmlns="http://www.w3.org/2000/svg">
<path d="M118.9 258H78.7C77.0431 258 75.7 259.343 75.7 261V299.1C75.7 300.757 77.0431 302.1 78.7 302.1H118.9C120.557 302.1 121.9 300.757 121.9 299.1V261C121.9 259.343 120.557 258 118.9 258Z" fill="#CA611F"/>
<path d="M121.9 134.1H45.9C43.6909 134.1 41.9 135.891 41.9 138.1V210.2C41.9 212.409 43.6909 214.2 45.9 214.2H121.9C124.109 214.2 125.9 212.409 125.9 210.2V138.1C125.9 135.891 124.109 134.1 121.9 134.1Z" fill="#CA611F"/>
<path d="M39 214.3H3C1.34315 214.3 0 215.643 0 217.3V251.4C0 253.057 1.34315 254.4 3 254.4H39C40.6569 254.4 42 253.057 42 251.4V217.3C42 215.643 40.6569 214.3 39 214.3Z" fill="#CA611F"/>
<path d="M185.8 0H165.5C163.843 0 162.5 1.34315 162.5 3V22C162.5 23.6569 163.843 25 165.5 25H185.8C187.457 25 188.8 23.6569 188.8 22V3C188.8 1.34315 187.457 0 185.8 0Z" fill="#CA611F"/>
<path d="M143.5 25H63.3C61.0909 25 59.3 26.7909 59.3 29V105.1C59.3 107.309 61.0909 109.1 63.3001 109.1H143.5C145.709 109.1 147.5 107.309 147.5 105.1V29C147.5 26.7909 145.709 25 143.5 25Z" fill="#CA611F"/>
<path d="M466.6 112.8V31.7C466.6 27.3 464.3 25.1 459.7 25.1H194.6C192.943 25.1 191.6 26.4431 191.6 28.1V109.1H218.6C220.257 109.1 221.6 107.757 221.6 106.1V95H391L295.6 214.2C293.7 216.8 293.7 219.5 295.6 222.5L391 341.2H221.6V141.8C221.6 140.143 220.257 138.8 218.6 138.8H194.6C192.943 138.8 191.6 137.457 191.6 135.8V109.1H151.6C149.391 109.1 147.6 110.891 147.6 113.1V160.8C147.6 162.457 148.943 163.8 150.6 163.8H173C174.657 163.8 176 165.143 176 166.8V224.674L204.193 224.607C205.853 224.603 207.2 225.947 207.2 227.607V251.3C207.2 252.957 205.857 254.3 204.2 254.3H179C177.343 254.3 176 252.957 176 251.3V224.674L152.613 224.613C149.846 224.606 147.6 226.846 147.6 229.613V404.5C147.6 406.3 148.3 407.9 149.6 409.2C150.9 410.5 152.6 411.1 154.5 411.1H459.7C464.3 411.1 466.6 408.9 466.6 404.5V323.4C466.6 318.3 465.1 313.7 462 309.6L388 218.1L462 126.6C465.1 122.5 466.6 117.9 466.6 112.8Z" fill="#CA611F"/>
<path opacity="0.5" d="M391 95L312.5 193.1L466.6 392.1V323.4C466.6 318.3 465.1 313.7 462 309.6L388 218.1L462 126.6C465.1 122.6 466.6 118 466.6 112.8V31.7C466.6 27.3 464.3 25.1 459.7 25.1H194.6C192.943 25.1 191.6 26.4431 191.6 28.1V36.9L236.6 95H391Z" fill="#F38E4E" fill-opacity="0.99"/>
<path opacity="0.5" d="M188.8 3C188.8 1.34315 187.457 0 185.8 0H164.942C164.11 0 163.642 0.956047 164.152 1.61307L182.3 25H185.8C187.457 25 188.8 23.6569 188.8 22V3Z" fill="#CA611F"/>
<path d="M518.05 66.9302H544.22C546.42 66.9302 547.53 67.9302 547.53 69.8402V233.7C547.53 235.64 546.42 236.61 544.22 236.61H518.05C517.652 236.619 517.256 236.549 516.885 236.403C516.514 236.257 516.176 236.038 515.89 235.76C515.604 235.5 515.377 235.181 515.223 234.826C515.07 234.471 514.994 234.087 515 233.7V69.8402C514.994 69.4533 515.07 69.0694 515.223 68.7141C515.377 68.3589 515.604 68.0405 515.89 67.7802C516.176 67.5021 516.514 67.2838 516.885 67.1378C517.256 66.9919 517.652 66.9213 518.05 66.9302Z" fill="#CA611F"/>
<path d="M609.53 233.7V69.84C609.523 69.4531 609.599 69.0692 609.753 68.7139C609.906 68.3587 610.134 68.0403 610.42 67.78C610.706 67.502 611.044 67.2836 611.415 67.1376C611.786 66.9917 612.182 66.9211 612.58 66.93H636.72C638.32 66.8968 639.907 67.229 641.359 67.9013C642.811 68.5737 644.09 69.5685 645.1 70.81L736.58 184.25V69.84C736.58 67.9 737.58 66.93 739.63 66.93H765.81C767.81 66.93 768.81 67.93 768.81 69.84V233.7C768.81 235.64 767.81 236.61 765.81 236.61H741.67C740.069 236.642 738.482 236.309 737.028 235.637C735.575 234.965 734.293 233.971 733.28 232.73L642.05 119.29V233.7C642.05 235.64 640.95 236.61 638.75 236.61H612.58C612.182 236.619 611.786 236.548 611.415 236.402C611.044 236.256 610.706 236.038 610.42 235.76C610.134 235.5 609.906 235.181 609.753 234.826C609.599 234.471 609.523 234.087 609.53 233.7Z" fill="#CA611F"/>
<path d="M1046.01 233.21L1176.62 70.8101C1177.63 69.5678 1178.91 68.5726 1180.37 67.9003C1181.82 67.2279 1183.41 66.8961 1185.01 66.9301H1209.15C1211.15 66.9301 1212.2 67.9301 1212.2 69.8401V233.7C1212.2 235.64 1211.2 236.61 1209.15 236.61H1185.01C1183.41 236.642 1181.82 236.309 1180.37 235.637C1178.91 234.965 1177.63 233.971 1176.62 232.73L1132.62 177.95L1088.4 232.73C1087.39 233.97 1086.11 234.964 1084.66 235.636C1083.21 236.308 1081.62 236.641 1080.02 236.61H1047.81C1047.41 236.609 1047.02 236.508 1046.67 236.316C1046.32 236.123 1046.02 235.846 1045.81 235.51C1045.56 235.169 1045.44 234.746 1045.47 234.322C1045.51 233.898 1045.7 233.503 1046.01 233.21V233.21ZM1153.75 151.77L1179.92 184.25V119.25L1153.75 151.77Z" fill="#CA611F"/>
<path d="M828.66 233.7V69.84C828.652 69.4529 828.728 69.0686 828.881 68.7132C829.035 68.3577 829.263 68.0395 829.55 67.78C829.836 67.502 830.174 67.2836 830.545 67.1376C830.916 66.9917 831.312 66.9211 831.71 66.93H855.81C857.412 66.8967 859 67.2289 860.453 67.9012C861.907 68.5735 863.189 69.5683 864.2 70.81L955.68 184.25V69.84C955.68 67.9 956.68 66.93 958.73 66.93H984.9C986.9 66.93 987.9 67.93 987.9 69.84V233.7C987.9 235.63 986.9 236.6 984.9 236.6H960.81C959.21 236.634 957.623 236.303 956.169 235.632C954.715 234.962 953.433 233.969 952.42 232.73L861.19 119.29V233.7C861.19 235.63 860.08 236.6 857.88 236.6H831.71C831.313 236.61 830.917 236.541 830.546 236.397C830.175 236.253 829.837 236.036 829.55 235.76C829.264 235.5 829.036 235.181 828.883 234.826C828.729 234.471 828.654 234.087 828.66 233.7V233.7Z" fill="#CA611F"/>
<path d="M1281.46 64.5H1317.81C1338.08 64.5 1351.81 65.29 1359.01 66.87C1369.84 69.2433 1378.64 74.32 1385.43 82.1C1392.22 89.88 1395.61 99.46 1395.61 110.84C1395.79 119.681 1393.36 128.379 1388.61 135.84C1383.76 143.182 1376.78 148.869 1368.61 152.14C1359.94 155.807 1347.94 157.683 1332.61 157.77L1398.25 238.61H1375.68L1310.01 157.77H1299.7V238.61H1281.46V64.5ZM1299.7 81.55V140.72L1331.14 140.96C1343.32 140.96 1352.32 139.857 1358.14 137.65C1363.7 135.657 1368.49 131.949 1371.81 127.06C1375.07 122.259 1376.78 116.58 1376.72 110.78C1376.72 105.11 1375 99.5728 1371.79 94.9016C1368.57 90.2304 1364.02 86.6451 1358.72 84.62C1353.33 82.5667 1344.38 81.5433 1331.88 81.55H1299.7Z" fill="white"/>
<path d="M1457.5 64.5H1475.74V238.61H1457.5V64.5Z" fill="white"/>
<path d="M1543.59 64.5H1561.81V169.6C1561.81 182.073 1562.06 189.847 1562.55 192.92C1563.2 199.095 1565.38 205.012 1568.88 210.14C1572.21 214.76 1577.3 218.627 1584.14 221.74C1590.63 224.775 1597.7 226.372 1604.86 226.42C1610.84 226.429 1616.76 225.178 1622.23 222.75C1627.57 220.449 1632.32 216.969 1636.13 212.57C1639.98 207.985 1642.77 202.612 1644.32 196.83C1645.56 192.41 1646.18 183.333 1646.18 169.6V64.5H1664.42V169.6C1664.42 185.153 1662.83 197.72 1659.64 207.3C1656.45 216.88 1650.08 225.213 1640.53 232.3C1630.98 239.4 1619.42 242.953 1605.85 242.96C1591.13 242.96 1578.52 239.607 1568.01 232.9C1557.5 226.193 1550.47 217.313 1546.92 206.26C1544.68 199.48 1543.56 187.25 1543.57 169.57L1543.59 64.5Z" fill="white"/>
<path d="M1726.45 238.61L1752.59 64.5H1755.59L1829.75 207.37L1903.24 64.51H1906.16L1932.43 238.62H1914.54L1896.54 114.1L1832.01 238.62H1827.35L1762.04 113.16L1744.11 238.62L1726.45 238.61Z" fill="white"/>
<path d="M555.59 288.01C556.259 287.999 556.923 288.126 557.54 288.382C558.158 288.639 558.716 289.019 559.18 289.5C559.659 289.968 560.036 290.529 560.291 291.148C560.545 291.767 560.671 292.431 560.66 293.1C560.66 294.44 560.128 295.724 559.181 296.671C558.234 297.618 556.95 298.15 555.61 298.15C554.271 298.15 552.987 297.618 552.04 296.671C551.092 295.724 550.56 294.44 550.56 293.1C550.55 292.431 550.676 291.767 550.93 291.148C551.185 290.529 551.562 289.968 552.04 289.5C552.499 289.022 553.05 288.643 553.661 288.387C554.272 288.131 554.928 288.002 555.59 288.01V288.01ZM552.53 307.69H558.69V355.51H552.53V307.69Z" fill="white"/>
<path d="M571.47 307.69H577.63V316.26C579.792 313.247 582.579 310.736 585.8 308.9C588.795 307.275 592.153 306.436 595.56 306.46C598.932 306.403 602.243 307.354 605.07 309.19C607.807 310.963 609.943 313.522 611.201 316.53C612.534 319.597 613.201 324.387 613.201 330.9V355.51H607.05V332.7C607.05 327.194 606.82 323.527 606.36 321.7C605.873 318.913 604.422 316.386 602.26 314.56C599.977 312.877 597.184 312.03 594.35 312.16C590.681 312.14 587.128 313.451 584.35 315.85C581.477 318.191 579.436 321.397 578.53 324.99C577.944 327.37 577.651 331.704 577.651 337.99V355.53H571.49L571.47 307.69Z" fill="white"/>
<path d="M626.36 307.69H632.51V316.26C634.678 313.249 637.467 310.738 640.69 308.9C643.682 307.276 647.036 306.437 650.44 306.46C653.815 306.401 657.13 307.352 659.96 309.19C662.697 310.963 664.833 313.522 666.09 316.53C667.424 319.597 668.09 324.387 668.09 330.9V355.51H661.91V332.7C661.91 327.19 661.69 323.51 661.23 321.7C660.743 318.913 659.292 316.386 657.13 314.56C654.847 312.877 652.054 312.029 649.22 312.16C645.55 312.138 641.997 313.449 639.22 315.85C636.347 318.193 634.304 321.397 633.39 324.99C632.81 327.37 632.517 331.703 632.51 337.99V355.53H626.36V307.69Z" fill="white"/>
<path d="M703.88 306.46C707.332 306.379 710.76 307.053 713.925 308.435C717.089 309.817 719.913 311.873 722.2 314.46C726.514 319.247 728.869 325.481 728.799 331.924C728.728 338.367 726.237 344.549 721.82 349.24C717.154 354.24 711.174 356.74 703.88 356.74C696.587 356.74 690.587 354.24 685.88 349.24C681.464 344.556 678.973 338.382 678.902 331.944C678.832 325.507 681.188 319.279 685.5 314.5C687.79 311.897 690.622 309.829 693.798 308.439C696.973 307.05 700.415 306.375 703.88 306.46V306.46ZM703.88 312.46C701.408 312.435 698.958 312.927 696.687 313.903C694.416 314.879 692.373 316.319 690.69 318.13C688.903 319.932 687.494 322.073 686.548 324.428C685.602 326.782 685.137 329.303 685.18 331.84C685.164 335.227 686.029 338.559 687.69 341.51C689.27 344.403 691.625 346.8 694.49 348.43C697.361 350.03 700.594 350.87 703.88 350.87C707.167 350.87 710.399 350.03 713.27 348.43C716.133 346.799 718.484 344.403 720.06 341.51C721.73 338.562 722.599 335.228 722.58 331.84C722.625 329.3 722.158 326.777 721.206 324.421C720.254 322.066 718.837 319.926 717.04 318.13C715.357 316.324 713.315 314.889 711.046 313.916C708.777 312.943 706.329 312.454 703.86 312.48L703.88 312.46Z" fill="white"/>
<path d="M735.65 307.69H742.2L758.25 342.55L774.11 307.69H780.7L758.81 355.51H757.67L735.65 307.69Z" fill="white"/>
<path d="M837.7 307.69V355.51H831.63V347.29C829.276 350.24 826.316 352.651 822.95 354.36C818.369 356.555 813.214 357.253 808.214 356.356C803.214 355.458 798.623 353.011 795.09 349.36C792.752 347.012 790.911 344.217 789.677 341.142C788.444 338.066 787.843 334.773 787.91 331.46C787.857 328.177 788.472 324.917 789.718 321.88C790.965 318.842 792.816 316.09 795.16 313.79C797.405 311.432 800.113 309.562 803.114 308.299C806.115 307.036 809.345 306.407 812.6 306.45C816.306 306.399 819.967 307.261 823.26 308.96C826.601 310.772 829.469 313.344 831.63 316.47V307.68L837.7 307.69ZM813.11 312.37C809.764 312.345 806.474 313.225 803.587 314.916C800.7 316.608 798.324 319.049 796.71 321.98C795.026 324.919 794.14 328.248 794.14 331.635C794.14 335.023 795.026 338.351 796.71 341.29C798.352 344.272 800.771 346.753 803.71 348.47C806.543 350.16 809.782 351.048 813.08 351.04C816.439 351.043 819.739 350.164 822.65 348.49C825.586 346.898 828.012 344.51 829.65 341.6C831.299 338.604 832.14 335.23 832.09 331.81C832.161 329.249 831.713 326.7 830.773 324.316C829.833 321.933 828.42 319.764 826.62 317.94C824.88 316.123 822.78 314.689 820.453 313.729C818.127 312.77 815.626 312.307 813.11 312.37V312.37Z" fill="white"/>
<path d="M897.94 317.62L893.07 320.62C888.85 315.02 883.1 312.22 875.82 312.22C873.149 312.14 870.489 312.596 867.996 313.561C865.504 314.526 863.231 315.981 861.31 317.84C859.452 319.589 857.979 321.706 856.985 324.056C855.992 326.407 855.5 328.939 855.54 331.49C855.531 334.948 856.446 338.345 858.19 341.33C859.907 344.346 862.432 346.822 865.48 348.48C870.036 350.892 875.294 351.627 880.336 350.558C885.378 349.489 889.885 346.683 893.07 342.63L897.94 345.84C895.649 349.286 892.471 352.05 888.74 353.84C884.633 355.796 880.128 356.771 875.58 356.69C868.02 356.69 861.75 354.287 856.77 349.48C854.367 347.242 852.46 344.525 851.173 341.503C849.886 338.482 849.248 335.224 849.3 331.94C849.288 327.422 850.501 322.984 852.81 319.1C855.093 315.175 858.415 311.957 862.41 309.8C866.61 307.545 871.314 306.396 876.08 306.46C879.191 306.455 882.283 306.945 885.24 307.91C887.928 308.748 890.459 310.026 892.73 311.69C894.838 313.307 896.608 315.322 897.94 317.62V317.62Z" fill="white"/>
<path d="M911.9 288.01C912.567 287.998 913.23 288.124 913.846 288.381C914.462 288.637 915.018 289.018 915.48 289.5C915.962 289.966 916.342 290.526 916.598 291.146C916.855 291.765 916.981 292.43 916.97 293.1C916.97 294.439 916.438 295.724 915.491 296.671C914.544 297.618 913.26 298.15 911.92 298.15C910.581 298.15 909.296 297.618 908.349 296.671C907.402 295.724 906.87 294.439 906.87 293.1C906.86 292.431 906.985 291.767 907.24 291.148C907.494 290.529 907.872 289.968 908.35 289.5C908.808 289.021 909.359 288.642 909.97 288.385C910.581 288.129 911.238 288.001 911.9 288.01V288.01ZM908.81 307.69H914.96V355.51H908.81V307.69Z" fill="white"/>
<path d="M950.41 306.46C953.862 306.378 957.291 307.051 960.455 308.433C963.62 309.815 966.444 311.872 968.73 314.46C973.044 319.247 975.399 325.481 975.329 331.924C975.258 338.368 972.767 344.549 968.35 349.24C963.684 354.24 957.704 356.74 950.41 356.74C943.117 356.74 937.117 354.24 932.41 349.24C927.991 344.557 925.499 338.381 925.43 331.943C925.362 325.504 927.722 319.276 932.04 314.5C934.327 311.897 937.157 309.827 940.331 308.438C943.506 307.049 946.946 306.373 950.41 306.46V306.46ZM950.41 312.46C947.94 312.435 945.491 312.927 943.221 313.903C940.952 314.88 938.911 316.319 937.23 318.13C935.438 319.929 934.026 322.069 933.078 324.425C932.13 326.78 931.665 329.302 931.71 331.84C931.692 335.228 932.561 338.562 934.23 341.51C935.806 344.403 938.158 346.8 941.02 348.43C943.893 350.03 947.127 350.87 950.415 350.87C953.704 350.87 956.937 350.03 959.81 348.43C962.671 346.797 965.021 344.401 966.6 341.51C968.262 338.559 969.127 335.227 969.11 331.84C969.157 329.301 968.692 326.778 967.741 324.422C966.791 322.067 965.376 319.927 963.58 318.13C961.895 316.324 959.852 314.888 957.581 313.916C955.31 312.943 952.861 312.454 950.39 312.48L950.41 312.46ZM953.47 285.26H962.92L949.92 298.8H943.86L953.47 285.26Z" fill="white"/>
<path d="M986.71 307.69H992.87V316.26C995.032 313.247 997.819 310.736 1001.04 308.9C1004.04 307.275 1007.39 306.436 1010.8 306.46C1014.17 306.403 1017.48 307.354 1020.31 309.19C1023.05 310.963 1025.18 313.522 1026.44 316.53C1027.77 319.597 1028.44 324.387 1028.44 330.9V355.51H1022.29V332.7C1022.29 327.194 1022.06 323.527 1021.6 321.7C1021.11 318.913 1019.66 316.386 1017.5 314.56C1015.22 312.877 1012.42 312.03 1009.59 312.16C1005.92 312.14 1002.37 313.451 999.59 315.85C996.718 318.193 994.674 321.397 993.76 324.99C993.18 327.37 992.89 331.704 992.89 337.99V355.53H986.71V307.69Z" fill="white"/>
<path d="M1114.11 307.69V373H1108.05V347.29C1105.7 350.24 1102.74 352.651 1099.37 354.36C1094.79 356.555 1089.63 357.253 1084.63 356.356C1079.63 355.458 1075.04 353.011 1071.51 349.36C1069.17 347.013 1067.33 344.218 1066.09 341.142C1064.86 338.067 1064.25 334.774 1064.32 331.46C1064.27 328.177 1064.89 324.918 1066.13 321.881C1067.38 318.844 1069.23 316.091 1071.57 313.79C1073.82 311.432 1076.53 309.563 1079.53 308.3C1082.53 307.037 1085.76 306.407 1089.02 306.45C1092.72 306.399 1096.38 307.261 1099.67 308.96C1103.01 310.774 1105.88 313.346 1108.05 316.47V307.68L1114.11 307.69ZM1089.52 312.37C1086.18 312.343 1082.89 313.223 1080 314.915C1077.11 316.607 1074.74 319.048 1073.13 321.98C1071.44 324.917 1070.55 328.247 1070.55 331.635C1070.55 335.024 1071.44 338.353 1073.13 341.29C1074.77 344.272 1077.19 346.753 1080.13 348.47C1082.96 350.161 1086.2 351.049 1089.5 351.04C1092.86 351.043 1096.16 350.164 1099.07 348.49C1102 346.892 1104.43 344.506 1106.07 341.6C1107.72 338.603 1108.55 335.229 1108.5 331.81C1108.57 329.25 1108.13 326.701 1107.19 324.317C1106.25 321.934 1104.84 319.765 1103.04 317.94C1101.3 316.122 1099.2 314.688 1096.87 313.729C1094.54 312.77 1092.04 312.307 1089.52 312.37V312.37Z" fill="white"/>
<path d="M1127.12 307.69H1133.27V330.02C1133.27 335.474 1133.56 339.224 1134.15 341.27C1134.95 344.098 1136.72 346.555 1139.15 348.21C1141.77 349.952 1144.87 350.843 1148.02 350.76C1151.12 350.855 1154.17 349.988 1156.75 348.28C1159.1 346.719 1160.85 344.422 1161.75 341.75C1162.36 339.897 1162.66 335.987 1162.67 330.02V307.69H1168.95V331.16C1168.95 337.747 1168.18 342.714 1166.65 346.06C1165.18 349.317 1162.76 352.051 1159.7 353.9C1156.17 355.906 1152.14 356.89 1148.08 356.74C1144 356.885 1139.97 355.903 1136.41 353.9C1133.32 352.05 1130.87 349.287 1129.41 345.99C1127.87 342.61 1127.1 337.52 1127.1 330.72L1127.12 307.69Z" fill="white"/>
<path d="M1222.88 339.64L1228.06 342.37C1226.59 345.393 1224.6 348.129 1222.17 350.45C1219.98 352.473 1217.43 354.061 1214.65 355.13C1211.62 356.244 1208.42 356.789 1205.19 356.74C1197.39 356.74 1191.29 354.184 1186.89 349.07C1182.62 344.306 1180.27 338.128 1180.29 331.73C1180.23 325.844 1182.2 320.117 1185.88 315.52C1190.6 309.48 1196.93 306.46 1204.88 306.46C1213.03 306.46 1219.54 309.554 1224.41 315.74C1227.87 320.1 1229.63 325.547 1229.68 332.08H1186.68C1186.61 337.153 1188.52 342.053 1192 345.74C1193.63 347.468 1195.6 348.835 1197.8 349.753C1199.99 350.671 1202.35 351.12 1204.72 351.07C1207.15 351.068 1209.55 350.638 1211.83 349.8C1213.98 349.042 1215.96 347.901 1217.7 346.43C1219.75 344.436 1221.5 342.147 1222.88 339.64V339.64ZM1222.88 326.77C1222.26 323.921 1221.03 321.238 1219.29 318.9C1217.61 316.853 1215.48 315.227 1213.06 314.15C1210.51 312.957 1207.73 312.343 1204.92 312.35C1200.46 312.266 1196.13 313.886 1192.82 316.88C1190.36 319.067 1188.5 322.364 1187.24 326.77H1222.88Z" fill="white"/>
<path d="M1312.58 307.69V355.51H1306.51V347.29C1304.15 350.246 1301.18 352.661 1297.81 354.37C1293.23 356.565 1288.07 357.263 1283.07 356.366C1278.07 355.468 1273.48 353.021 1269.95 349.37C1267.61 347.023 1265.77 344.228 1264.53 341.152C1263.3 338.077 1262.69 334.784 1262.76 331.47C1262.71 328.186 1263.33 324.927 1264.57 321.889C1265.82 318.851 1267.67 316.099 1270.02 313.8C1272.26 311.441 1274.97 309.571 1277.97 308.308C1280.97 307.045 1284.2 306.416 1287.46 306.46C1291.17 306.409 1294.83 307.271 1298.12 308.97C1301.46 310.782 1304.33 313.354 1306.49 316.48V307.69H1312.58ZM1287.99 312.37C1284.64 312.345 1281.35 313.225 1278.47 314.916C1275.58 316.608 1273.2 319.049 1271.59 321.98C1269.9 324.917 1269.01 328.247 1269.01 331.635C1269.01 335.024 1269.9 338.353 1271.59 341.29C1273.23 344.272 1275.65 346.753 1278.59 348.47C1281.42 350.16 1284.66 351.048 1287.96 351.04C1291.32 351.043 1294.62 350.164 1297.53 348.49C1300.46 346.895 1302.89 344.508 1304.53 341.6C1306.18 338.604 1307.02 335.23 1306.97 331.81C1307.04 329.249 1306.59 326.7 1305.65 324.316C1304.71 321.933 1303.3 319.764 1301.5 317.94C1299.76 316.123 1297.66 314.689 1295.33 313.729C1293.01 312.77 1290.51 312.307 1287.99 312.37Z" fill="#CA611F"/>
<path d="M1326.5 307.69H1332.66V316.48C1334.84 313.365 1337.71 310.795 1341.04 308.97C1344.31 307.273 1347.94 306.411 1351.62 306.46C1354.87 306.417 1358.1 307.046 1361.1 308.309C1364.1 309.573 1366.81 311.442 1369.05 313.8C1371.39 316.101 1373.24 318.854 1374.49 321.891C1375.74 324.928 1376.35 328.187 1376.3 331.47C1376.37 334.783 1375.76 338.075 1374.53 341.15C1373.3 344.225 1371.46 347.021 1369.12 349.37C1365.6 353.021 1361.02 355.469 1356.02 356.366C1351.03 357.264 1345.88 356.565 1341.31 354.37C1337.96 352.658 1335.01 350.247 1332.66 347.3V373.01H1326.5V307.69ZM1351.11 312.37C1348.61 312.314 1346.12 312.78 1343.81 313.739C1341.5 314.698 1339.41 316.129 1337.68 317.94C1335.88 319.765 1334.47 321.934 1333.53 324.317C1332.6 326.701 1332.15 329.25 1332.22 331.81C1332.17 335.229 1333.01 338.603 1334.65 341.6C1336.29 344.509 1338.72 346.897 1341.65 348.49C1344.57 350.161 1347.87 351.04 1351.23 351.04C1354.51 351.044 1357.73 350.156 1360.55 348.47C1363.49 346.754 1365.91 344.272 1367.55 341.29C1369.24 338.353 1370.13 335.024 1370.13 331.635C1370.13 328.247 1369.24 324.917 1367.55 321.98C1365.94 319.041 1363.55 316.594 1360.66 314.902C1357.76 313.209 1354.46 312.334 1351.11 312.37Z" fill="#CA611F"/>
<path d="M1385.48 307.69H1391.81V314.69C1393.37 312.267 1395.39 310.171 1397.75 308.52C1399.66 307.203 1401.93 306.489 1404.25 306.47C1406.18 306.534 1408.06 307.095 1409.7 308.1L1406.49 313.28C1405.47 312.794 1404.37 312.512 1403.24 312.45C1401.02 312.519 1398.9 313.422 1397.31 314.98C1395.4 316.66 1393.95 319.274 1392.96 322.82C1392.19 325.534 1391.81 331.05 1391.81 339.37V355.55H1385.53L1385.48 307.69Z" fill="#CA611F"/>
<path d="M1437.16 306.46C1440.61 306.378 1444.04 307.051 1447.2 308.433C1450.36 309.815 1453.19 311.872 1455.47 314.46C1459.79 319.245 1462.15 325.479 1462.08 331.922C1462.01 338.366 1459.52 344.548 1455.1 349.24C1450.43 354.24 1444.45 356.74 1437.16 356.74C1429.87 356.74 1423.87 354.24 1419.16 349.24C1414.74 344.556 1412.25 338.382 1412.18 331.944C1412.11 325.507 1414.47 319.28 1418.78 314.5C1421.07 311.896 1423.9 309.826 1427.08 308.437C1430.25 307.047 1433.69 306.373 1437.16 306.46V306.46ZM1437.16 312.46C1434.69 312.435 1432.24 312.927 1429.97 313.903C1427.7 314.879 1425.65 316.319 1423.97 318.13C1422.18 319.932 1420.77 322.073 1419.83 324.428C1418.88 326.782 1418.42 329.303 1418.46 331.84C1418.44 335.227 1419.31 338.559 1420.97 341.51C1422.55 344.401 1424.9 346.797 1427.76 348.43C1430.63 350.03 1433.87 350.87 1437.16 350.87C1440.44 350.87 1443.68 350.03 1446.55 348.43C1449.41 346.8 1451.76 344.403 1453.34 341.51C1455.01 338.562 1455.88 335.228 1455.86 331.84C1455.91 329.3 1455.44 326.777 1454.49 324.421C1453.53 322.066 1452.12 319.926 1450.32 318.13C1448.64 316.324 1446.59 314.889 1444.33 313.917C1442.06 312.944 1439.61 312.455 1437.14 312.48L1437.16 312.46Z" fill="#CA611F"/>
<path d="M1468.01 307.69H1475.39L1488.11 325.18L1500.69 307.69H1508.09L1491.81 330.28L1510.15 355.51H1502.66L1488.11 335.42L1473.64 355.51H1466.3L1484.41 330.37L1468.01 307.69Z" fill="#CA611F"/>
<path d="M1518.81 288.01C1519.48 287.999 1520.14 288.126 1520.76 288.382C1521.38 288.639 1521.94 289.019 1522.4 289.5C1522.88 289.968 1523.26 290.529 1523.51 291.148C1523.77 291.767 1523.89 292.431 1523.88 293.1C1523.88 294.44 1523.35 295.724 1522.4 296.671C1521.45 297.618 1520.17 298.15 1518.83 298.15C1517.49 298.15 1516.21 297.618 1515.26 296.671C1514.31 295.724 1513.78 294.44 1513.78 293.1C1513.77 292.431 1513.9 291.767 1514.15 291.148C1514.4 290.529 1514.78 289.968 1515.26 289.5C1515.72 289.022 1516.27 288.643 1516.88 288.387C1517.49 288.131 1518.15 288.002 1518.81 288.01ZM1515.75 307.69H1521.91V355.51H1515.75V307.69Z" fill="#CA611F"/>
<path d="M1534.63 307.69H1540.81V315.95C1542.54 313.31 1544.79 311.042 1547.41 309.28C1550.36 307.448 1553.75 306.471 1557.22 306.46C1559.49 306.453 1561.74 306.916 1563.82 307.82C1565.77 308.636 1567.52 309.876 1568.93 311.45C1570.47 313.374 1571.64 315.573 1572.36 317.93C1574.14 314.469 1576.78 311.524 1580.03 309.38C1582.98 307.471 1586.42 306.457 1589.94 306.46C1593.04 306.404 1596.09 307.278 1598.69 308.97C1601.24 310.673 1603.2 313.116 1604.32 315.97C1605.54 318.963 1606.15 323.447 1606.16 329.42V355.53H1599.81V329.37C1599.81 324.25 1599.45 320.72 1598.72 318.8C1598 316.894 1596.69 315.27 1594.97 314.17C1593.09 312.963 1590.89 312.35 1588.65 312.41C1585.72 312.396 1582.85 313.321 1580.48 315.05C1578.02 316.792 1576.14 319.23 1575.07 322.05C1573.93 324.977 1573.36 329.867 1573.36 336.72V355.45H1567.21V331.03C1567.21 325.257 1566.85 321.337 1566.13 319.27C1565.45 317.238 1564.13 315.483 1562.37 314.27C1560.5 312.994 1558.27 312.34 1556 312.4C1553.13 312.401 1550.33 313.3 1548 314.97C1545.52 316.681 1543.61 319.09 1542.5 321.89C1541.32 324.79 1540.73 329.23 1540.72 335.21V355.47H1534.57L1534.63 307.69Z" fill="#CA611F"/>
<path d="M1666.73 307.69V355.51H1660.66V347.29C1658.31 350.24 1655.35 352.651 1651.99 354.36C1647.41 356.556 1642.25 357.254 1637.25 356.357C1632.25 355.46 1627.65 353.012 1624.12 349.36C1621.78 347.012 1619.94 344.217 1618.71 341.142C1617.47 338.066 1616.87 334.773 1616.94 331.46C1616.89 328.177 1617.51 324.918 1618.75 321.881C1620 318.844 1621.85 316.091 1624.19 313.79C1626.44 311.431 1629.15 309.561 1632.15 308.298C1635.15 307.035 1638.38 306.406 1641.64 306.45C1645.34 306.4 1649 307.262 1652.29 308.96C1655.63 310.772 1658.5 313.344 1660.66 316.47V307.68L1666.73 307.69ZM1642.14 312.37C1638.8 312.343 1635.51 313.223 1632.62 314.915C1629.73 316.607 1627.36 319.048 1625.75 321.98C1624.06 324.917 1623.17 328.247 1623.17 331.635C1623.17 335.024 1624.06 338.353 1625.75 341.29C1627.39 344.274 1629.81 346.756 1632.75 348.47C1635.58 350.161 1638.82 351.049 1642.12 351.04C1645.48 351.041 1648.78 350.162 1651.69 348.49C1654.62 346.896 1657.05 344.509 1658.69 341.6C1660.34 338.605 1661.18 335.23 1661.13 331.81C1661.2 329.25 1660.76 326.701 1659.82 324.317C1658.88 321.934 1657.47 319.765 1655.67 317.94C1653.93 316.121 1651.82 314.686 1649.49 313.727C1647.16 312.768 1644.66 312.306 1642.14 312.37Z" fill="#CA611F"/>
</svg>
