<svg width="1933" height="412" viewBox="0 0 1933 412" fill="none" xmlns="http://www.w3.org/2000/svg">
<path d="M118.9 258.5H78.7C77.0432 258.5 75.7 259.843 75.7 261.5V299.6C75.7 301.257 77.0432 302.6 78.7 302.6H118.9C120.557 302.6 121.9 301.257 121.9 299.6V261.5C121.9 259.843 120.557 258.5 118.9 258.5Z" fill="#CA611F"/>
<path d="M121.9 134.6H45.9C43.6909 134.6 41.9 136.391 41.9 138.6V210.7C41.9 212.909 43.6909 214.7 45.9 214.7H121.9C124.109 214.7 125.9 212.909 125.9 210.7V138.6C125.9 136.391 124.109 134.6 121.9 134.6Z" fill="#CA611F"/>
<path d="M39 214.8H3C1.34315 214.8 0 216.143 0 217.8V251.9C0 253.557 1.34315 254.9 3 254.9H39C40.6569 254.9 42 253.557 42 251.9V217.8C42 216.143 40.6569 214.8 39 214.8Z" fill="#CA611F"/>
<path d="M185.8 0.5H165.5C163.843 0.5 162.5 1.84315 162.5 3.5V22.5C162.5 24.1569 163.843 25.5 165.5 25.5H185.8C187.457 25.5 188.8 24.1569 188.8 22.5V3.5C188.8 1.84315 187.457 0.5 185.8 0.5Z" fill="#CA611F"/>
<path d="M143.5 25.5H63.3C61.0908 25.5 59.3 27.2909 59.3 29.5V105.6C59.3 107.809 61.0909 109.6 63.3 109.6H143.5C145.709 109.6 147.5 107.809 147.5 105.6V29.5C147.5 27.2909 145.709 25.5 143.5 25.5Z" fill="#CA611F"/>
<path d="M466.6 113.3V32.2C466.6 27.8 464.3 25.6 459.7 25.6H194.6C192.943 25.6 191.6 26.9431 191.6 28.6V109.6H218.6C220.257 109.6 221.6 108.257 221.6 106.6V95.5H391L295.6 214.7C293.7 217.3 293.7 220 295.6 223L391 341.7H221.6V142.3C221.6 140.643 220.257 139.3 218.6 139.3H194.6C192.943 139.3 191.6 137.957 191.6 136.3V109.6H151.6C149.391 109.6 147.6 111.391 147.6 113.6V161.3C147.6 162.957 148.943 164.3 150.6 164.3H173C174.657 164.3 176 165.643 176 167.3V225.174L204.193 225.107C205.853 225.103 207.2 226.447 207.2 228.107V251.8C207.2 253.457 205.857 254.8 204.2 254.8H179C177.343 254.8 176 253.457 176 251.8V225.174L152.613 225.113C149.846 225.106 147.6 227.346 147.6 230.113V405C147.6 406.8 148.3 408.4 149.6 409.7C150.9 411 152.6 411.6 154.5 411.6H459.7C464.3 411.6 466.6 409.4 466.6 405V323.9C466.6 318.8 465.1 314.2 462 310.1L388 218.6L462 127.1C465.1 123 466.6 118.4 466.6 113.3Z" fill="#CA611F"/>
<path opacity="0.5" d="M391 95.5L312.5 193.6L466.6 392.6V323.9C466.6 318.8 465.1 314.2 462 310.1L388 218.6L462 127.1C465.1 123.1 466.6 118.5 466.6 113.3V32.2C466.6 27.8 464.3 25.6 459.7 25.6H194.6C192.943 25.6 191.6 26.9431 191.6 28.6V37.4L236.6 95.5H391Z" fill="#F38E4E" fill-opacity="0.99"/>
<path opacity="0.5" d="M188.8 3.5C188.8 1.84315 187.457 0.5 185.8 0.5H164.942C164.11 0.5 163.642 1.45605 164.152 2.11307L182.3 25.5H185.8C187.457 25.5 188.8 24.1569 188.8 22.5V3.5Z" fill="#DE7736"/>
<path d="M518.05 67.4302H544.22C546.42 67.4302 547.53 68.4302 547.53 70.3402V234.2C547.53 236.14 546.42 237.11 544.22 237.11H518.05C517.652 237.119 517.256 237.049 516.885 236.903C516.514 236.757 516.176 236.538 515.89 236.26C515.604 236 515.377 235.681 515.223 235.326C515.07 234.971 514.994 234.587 515 234.2V70.3402C514.994 69.9533 515.07 69.5694 515.223 69.2141C515.377 68.8589 515.604 68.5405 515.89 68.2802C516.176 68.0021 516.514 67.7838 516.885 67.6378C517.256 67.4919 517.652 67.4213 518.05 67.4302Z" fill="#CA611F"/>
<path d="M609.53 234.2V70.34C609.524 69.9531 609.6 69.5692 609.753 69.2139C609.907 68.8587 610.134 68.5403 610.42 68.28C610.706 68.002 611.044 67.7836 611.415 67.6376C611.786 67.4917 612.182 67.4211 612.58 67.43H636.72C638.32 67.3968 639.907 67.729 641.359 68.4013C642.811 69.0737 644.091 70.0685 645.1 71.31L736.58 184.75V70.34C736.58 68.4 737.58 67.43 739.63 67.43H765.81C767.81 67.43 768.81 68.43 768.81 70.34V234.2C768.81 236.14 767.81 237.11 765.81 237.11H741.67C740.069 237.142 738.482 236.809 737.028 236.137C735.575 235.465 734.293 234.471 733.28 233.23L642.05 119.79V234.2C642.05 236.14 640.95 237.11 638.75 237.11H612.58C612.182 237.119 611.786 237.048 611.415 236.902C611.044 236.756 610.706 236.538 610.42 236.26C610.134 236 609.907 235.681 609.753 235.326C609.6 234.971 609.524 234.587 609.53 234.2Z" fill="#CA611F"/>
<path d="M1046.01 233.71L1176.62 71.3101C1177.63 70.0678 1178.91 69.0726 1180.37 68.4003C1181.82 67.7279 1183.41 67.3961 1185.01 67.4301H1209.15C1211.15 67.4301 1212.2 68.4301 1212.2 70.3401V234.2C1212.2 236.14 1211.2 237.11 1209.15 237.11H1185.01C1183.41 237.142 1181.82 236.809 1180.37 236.137C1178.91 235.465 1177.63 234.471 1176.62 233.23L1132.62 178.45L1088.4 233.23C1087.39 234.47 1086.11 235.464 1084.66 236.136C1083.21 236.808 1081.62 237.141 1080.02 237.11H1047.81C1047.41 237.109 1047.02 237.008 1046.67 236.816C1046.32 236.623 1046.02 236.346 1045.81 236.01C1045.56 235.669 1045.44 235.246 1045.47 234.822C1045.51 234.398 1045.7 234.003 1046.01 233.71ZM1153.75 152.27L1179.92 184.75V119.75L1153.75 152.27Z" fill="#CA611F"/>
<path d="M828.66 234.2V70.34C828.652 69.9529 828.728 69.5686 828.881 69.2132C829.035 68.8577 829.263 68.5395 829.55 68.28C829.836 68.002 830.174 67.7836 830.545 67.6376C830.916 67.4917 831.312 67.4211 831.71 67.43H855.81C857.412 67.3967 859 67.7289 860.453 68.4012C861.907 69.0735 863.189 70.0683 864.2 71.31L955.68 184.75V70.34C955.68 68.4 956.68 67.43 958.73 67.43H984.9C986.9 67.43 987.9 68.43 987.9 70.34V234.2C987.9 236.13 986.9 237.1 984.9 237.1H960.81C959.21 237.134 957.623 236.803 956.169 236.132C954.716 235.462 953.434 234.469 952.42 233.23L861.19 119.79V234.2C861.19 236.13 860.08 237.1 857.88 237.1H831.71C831.313 237.11 830.917 237.041 830.546 236.897C830.175 236.753 829.837 236.536 829.55 236.26C829.264 236 829.037 235.681 828.883 235.326C828.73 234.971 828.654 234.587 828.66 234.2Z" fill="#CA611F"/>
<path d="M1281.46 65H1317.81C1338.08 65 1351.81 65.79 1359.01 67.37C1369.84 69.7433 1378.64 74.82 1385.43 82.6C1392.22 90.38 1395.61 99.96 1395.61 111.34C1395.79 120.181 1393.36 128.879 1388.61 136.34C1383.76 143.682 1376.78 149.369 1368.61 152.64C1359.94 156.307 1347.94 158.183 1332.61 158.27L1398.25 239.11H1375.68L1310.01 158.27H1299.7V239.11H1281.46V65ZM1299.7 82.05V141.22L1331.14 141.46C1343.32 141.46 1352.32 140.357 1358.14 138.15C1363.7 136.157 1368.49 132.449 1371.81 127.56C1375.07 122.759 1376.78 117.08 1376.72 111.28C1376.72 105.61 1375 100.073 1371.79 95.4016C1368.57 90.7304 1364.02 87.1451 1358.72 85.12C1353.33 83.0667 1344.38 82.0433 1331.88 82.05H1299.7Z" fill="#161E29"/>
<path d="M1457.5 65H1475.74V239.11H1457.5V65Z" fill="#161E29"/>
<path d="M1543.59 65H1561.81V170.1C1561.81 182.573 1562.06 190.347 1562.55 193.42C1563.2 199.595 1565.38 205.512 1568.88 210.64C1572.21 215.26 1577.3 219.127 1584.14 222.24C1590.63 225.275 1597.7 226.872 1604.86 226.92C1610.84 226.929 1616.76 225.678 1622.23 223.25C1627.57 220.949 1632.32 217.469 1636.13 213.07C1639.98 208.485 1642.77 203.112 1644.32 197.33C1645.56 192.91 1646.18 183.833 1646.18 170.1V65H1664.42V170.1C1664.42 185.653 1662.83 198.22 1659.64 207.8C1656.45 217.38 1650.08 225.713 1640.53 232.8C1630.98 239.9 1619.42 243.453 1605.85 243.46C1591.13 243.46 1578.52 240.107 1568.01 233.4C1557.5 226.693 1550.47 217.813 1546.92 206.76C1544.68 199.98 1543.56 187.75 1543.57 170.07L1543.59 65Z" fill="#161E29"/>
<path d="M1726.45 239.11L1752.59 65H1755.59L1829.75 207.87L1903.24 65.01H1906.16L1932.43 239.12H1914.54L1896.54 114.6L1832.01 239.12H1827.35L1762.04 113.66L1744.11 239.12L1726.45 239.11Z" fill="#161E29"/>
<path d="M555.59 288.51C556.259 288.499 556.923 288.626 557.54 288.882C558.158 289.139 558.716 289.519 559.18 290C559.659 290.468 560.036 291.029 560.291 291.648C560.545 292.267 560.671 292.931 560.66 293.6C560.66 294.94 560.128 296.224 559.181 297.171C558.234 298.118 556.95 298.65 555.61 298.65C554.271 298.65 552.987 298.118 552.04 297.171C551.092 296.224 550.56 294.94 550.56 293.6C550.55 292.931 550.676 292.267 550.93 291.648C551.185 291.029 551.562 290.468 552.04 290C552.499 289.522 553.05 289.143 553.661 288.887C554.272 288.631 554.928 288.502 555.59 288.51ZM552.53 308.19H558.69V356.01H552.53V308.19Z" fill="#161E29"/>
<path d="M571.47 308.19H577.63V316.76C579.792 313.747 582.579 311.236 585.8 309.4C588.795 307.775 592.153 306.936 595.56 306.96C598.932 306.903 602.243 307.854 605.07 309.69C607.807 311.463 609.943 314.022 611.2 317.03C612.534 320.097 613.2 324.887 613.2 331.4V356.01H607.05V333.2C607.05 327.694 606.82 324.027 606.36 322.2C605.873 319.413 604.422 316.886 602.26 315.06C599.977 313.377 597.184 312.53 594.35 312.66C590.68 312.64 587.128 313.951 584.35 316.35C581.477 318.691 579.436 321.897 578.53 325.49C577.944 327.87 577.65 332.204 577.65 338.49V356.03H571.49L571.47 308.19Z" fill="#161E29"/>
<path d="M626.36 308.19H632.51V316.76C634.678 313.749 637.468 311.238 640.69 309.4C643.682 307.776 647.037 306.937 650.44 306.96C653.815 306.901 657.13 307.852 659.961 309.69C662.697 311.463 664.833 314.022 666.091 317.03C667.424 320.097 668.091 324.887 668.091 331.4V356.01H661.91V333.2C661.91 327.69 661.69 324.01 661.23 322.2C660.743 319.413 659.292 316.886 657.13 315.06C654.847 313.377 652.054 312.529 649.22 312.66C645.55 312.638 641.997 313.949 639.22 316.35C636.348 318.693 634.304 321.897 633.391 325.49C632.811 327.87 632.517 332.203 632.51 338.49V356.03H626.36V308.19Z" fill="#161E29"/>
<path d="M703.881 306.96C707.332 306.879 710.76 307.553 713.925 308.935C717.089 310.317 719.914 312.373 722.201 314.96C726.514 319.747 728.869 325.981 728.799 332.424C728.728 338.867 726.237 345.049 721.821 349.74C717.154 354.74 711.174 357.24 703.881 357.24C696.587 357.24 690.587 354.74 685.881 349.74C681.464 345.056 678.973 338.882 678.903 332.444C678.832 326.007 681.188 319.779 685.5 315C687.79 312.397 690.622 310.329 693.798 308.939C696.974 307.55 700.415 306.875 703.881 306.96ZM703.881 312.96C701.408 312.935 698.958 313.427 696.687 314.403C694.416 315.379 692.373 316.819 690.69 318.63C688.903 320.432 687.495 322.573 686.548 324.928C685.602 327.282 685.137 329.803 685.18 332.34C685.164 335.727 686.029 339.059 687.69 342.01C689.271 344.903 691.625 347.3 694.49 348.93C697.362 350.53 700.594 351.37 703.881 351.37C707.167 351.37 710.399 350.53 713.271 348.93C716.133 347.299 718.484 344.903 720.06 342.01C721.73 339.062 722.599 335.728 722.581 332.34C722.625 329.8 722.158 327.277 721.206 324.921C720.254 322.566 718.838 320.426 717.04 318.63C715.357 316.824 713.315 315.389 711.046 314.416C708.777 313.443 706.329 312.954 703.86 312.98L703.881 312.96Z" fill="#161E29"/>
<path d="M735.651 308.19H742.201L758.25 343.05L774.11 308.19H780.701L758.81 356.01H757.67L735.651 308.19Z" fill="#161E29"/>
<path d="M837.7 308.19V356.01H831.63V347.79C829.276 350.74 826.316 353.151 822.95 354.86C818.369 357.055 813.214 357.753 808.214 356.856C803.214 355.958 798.622 353.511 795.09 349.86C792.752 347.512 790.911 344.717 789.677 341.642C788.443 338.566 787.842 335.273 787.91 331.96C787.857 328.677 788.472 325.417 789.718 322.38C790.965 319.342 792.816 316.59 795.16 314.29C797.405 311.932 800.113 310.062 803.114 308.799C806.115 307.536 809.345 306.907 812.6 306.95C816.306 306.899 819.967 307.761 823.26 309.46C826.601 311.272 829.469 313.844 831.63 316.97V308.18L837.7 308.19ZM813.11 312.87C809.764 312.845 806.474 313.725 803.587 315.416C800.7 317.108 798.324 319.549 796.71 322.48C795.026 325.419 794.14 328.748 794.14 332.135C794.14 335.523 795.026 338.851 796.71 341.79C798.352 344.772 800.771 347.253 803.71 348.97C806.543 350.66 809.782 351.548 813.08 351.54C816.439 351.543 819.739 350.664 822.65 348.99C825.586 347.398 828.012 345.01 829.65 342.1C831.299 339.104 832.14 335.73 832.09 332.31C832.161 329.749 831.713 327.2 830.773 324.816C829.833 322.433 828.42 320.264 826.62 318.44C824.88 316.623 822.78 315.189 820.453 314.229C818.127 313.27 815.626 312.807 813.11 312.87Z" fill="#161E29"/>
<path d="M897.94 318.12L893.07 321.12C888.85 315.52 883.1 312.72 875.82 312.72C873.149 312.64 870.489 313.096 867.996 314.061C865.504 315.026 863.231 316.481 861.31 318.34C859.452 320.089 857.979 322.206 856.985 324.556C855.992 326.907 855.5 329.439 855.54 331.99C855.531 335.448 856.446 338.845 858.19 341.83C859.907 344.846 862.432 347.322 865.48 348.98C870.036 351.392 875.294 352.127 880.336 351.058C885.379 349.989 889.885 347.183 893.07 343.13L897.94 346.34C895.649 349.786 892.471 352.55 888.74 354.34C884.633 356.296 880.129 357.271 875.58 357.19C868.02 357.19 861.75 354.787 856.77 349.98C854.367 347.742 852.46 345.025 851.173 342.003C849.887 338.982 849.249 335.724 849.3 332.44C849.289 327.922 850.502 323.484 852.81 319.6C855.093 315.675 858.415 312.457 862.41 310.3C866.61 308.045 871.314 306.896 876.08 306.96C879.191 306.955 882.283 307.445 885.24 308.41C887.928 309.248 890.459 310.526 892.73 312.19C894.838 313.807 896.608 315.822 897.94 318.12Z" fill="#161E29"/>
<path d="M911.9 288.51C912.568 288.498 913.23 288.624 913.846 288.881C914.462 289.137 915.019 289.518 915.48 290C915.962 290.466 916.342 291.026 916.599 291.646C916.855 292.265 916.981 292.93 916.97 293.6C916.97 294.939 916.438 296.224 915.491 297.171C914.544 298.118 913.26 298.65 911.92 298.65C910.581 298.65 909.297 298.118 908.349 297.171C907.402 296.224 906.87 294.939 906.87 293.6C906.86 292.931 906.986 292.267 907.24 291.648C907.494 291.029 907.872 290.468 908.35 290C908.808 289.521 909.359 289.142 909.97 288.885C910.581 288.629 911.238 288.501 911.9 288.51ZM908.81 308.19H914.96V356.01H908.81V308.19Z" fill="#161E29"/>
<path d="M950.41 306.96C953.863 306.878 957.291 307.551 960.456 308.933C963.62 310.315 966.444 312.372 968.73 314.96C973.044 319.747 975.399 325.981 975.329 332.424C975.258 338.868 972.767 345.049 968.35 349.74C963.684 354.74 957.704 357.24 950.41 357.24C943.117 357.24 937.117 354.74 932.41 349.74C927.991 345.057 925.499 338.881 925.43 332.443C925.362 326.004 927.722 319.776 932.04 315C934.327 312.397 937.157 310.327 940.332 308.938C943.506 307.549 946.946 306.873 950.41 306.96ZM950.41 312.96C947.94 312.935 945.491 313.427 943.222 314.403C940.952 315.38 938.911 316.819 937.23 318.63C935.438 320.429 934.026 322.569 933.078 324.925C932.13 327.28 931.665 329.802 931.71 332.34C931.692 335.728 932.561 339.062 934.23 342.01C935.806 344.903 938.158 347.3 941.02 348.93C943.893 350.53 947.127 351.37 950.415 351.37C953.704 351.37 956.938 350.53 959.81 348.93C962.671 347.297 965.021 344.901 966.6 342.01C968.262 339.059 969.127 335.727 969.11 332.34C969.157 329.801 968.692 327.278 967.742 324.922C966.791 322.567 965.376 320.427 963.58 318.63C961.895 316.824 959.852 315.388 957.581 314.416C955.31 313.443 952.861 312.954 950.39 312.98L950.41 312.96ZM953.47 285.76H962.92L949.92 299.3H943.86L953.47 285.76Z" fill="#161E29"/>
<path d="M986.71 308.19H992.87V316.76C995.032 313.747 997.819 311.236 1001.04 309.4C1004.04 307.775 1007.39 306.936 1010.8 306.96C1014.17 306.903 1017.48 307.854 1020.31 309.69C1023.05 311.463 1025.18 314.022 1026.44 317.03C1027.77 320.097 1028.44 324.887 1028.44 331.4V356.01H1022.29V333.2C1022.29 327.694 1022.06 324.027 1021.6 322.2C1021.11 319.413 1019.66 316.886 1017.5 315.06C1015.22 313.377 1012.42 312.53 1009.59 312.66C1005.92 312.64 1002.37 313.951 999.59 316.35C996.718 318.693 994.674 321.897 993.76 325.49C993.18 327.87 992.89 332.204 992.89 338.49V356.03H986.71V308.19Z" fill="#161E29"/>
<path d="M1114.11 308.19V373.5H1108.05V347.79C1105.7 350.74 1102.74 353.151 1099.37 354.86C1094.79 357.055 1089.63 357.753 1084.63 356.856C1079.63 355.958 1075.04 353.511 1071.51 349.86C1069.17 347.513 1067.33 344.718 1066.09 341.642C1064.86 338.567 1064.25 335.274 1064.32 331.96C1064.27 328.677 1064.89 325.418 1066.13 322.381C1067.38 319.344 1069.23 316.591 1071.57 314.29C1073.82 311.932 1076.53 310.063 1079.53 308.8C1082.53 307.537 1085.76 306.907 1089.02 306.95C1092.72 306.899 1096.38 307.761 1099.67 309.46C1103.01 311.274 1105.88 313.846 1108.05 316.97V308.18L1114.11 308.19ZM1089.52 312.87C1086.18 312.843 1082.89 313.723 1080 315.415C1077.11 317.107 1074.74 319.548 1073.13 322.48C1071.44 325.417 1070.55 328.747 1070.55 332.135C1070.55 335.524 1071.44 338.853 1073.13 341.79C1074.77 344.772 1077.19 347.253 1080.13 348.97C1082.96 350.661 1086.2 351.549 1089.5 351.54C1092.86 351.543 1096.16 350.664 1099.07 348.99C1102 347.392 1104.43 345.006 1106.07 342.1C1107.72 339.103 1108.55 335.729 1108.5 332.31C1108.57 329.75 1108.13 327.201 1107.19 324.817C1106.25 322.434 1104.84 320.265 1103.04 318.44C1101.3 316.622 1099.2 315.188 1096.87 314.229C1094.54 313.27 1092.04 312.807 1089.52 312.87Z" fill="#161E29"/>
<path d="M1127.12 308.19H1133.27V330.52C1133.27 335.974 1133.56 339.724 1134.15 341.77C1134.95 344.598 1136.72 347.055 1139.15 348.71C1141.77 350.452 1144.87 351.343 1148.02 351.26C1151.12 351.355 1154.17 350.488 1156.75 348.78C1159.1 347.219 1160.85 344.922 1161.75 342.25C1162.36 340.397 1162.66 336.487 1162.67 330.52V308.19H1168.95V331.66C1168.95 338.247 1168.18 343.214 1166.65 346.56C1165.18 349.817 1162.76 352.551 1159.7 354.4C1156.17 356.406 1152.14 357.39 1148.08 357.24C1144 357.385 1139.96 356.403 1136.41 354.4C1133.32 352.55 1130.87 349.787 1129.41 346.49C1127.87 343.11 1127.1 338.02 1127.1 331.22L1127.12 308.19Z" fill="#161E29"/>
<path d="M1222.88 340.14L1228.06 342.87C1226.59 345.893 1224.6 348.629 1222.17 350.95C1219.98 352.973 1217.43 354.561 1214.65 355.63C1211.62 356.744 1208.42 357.289 1205.19 357.24C1197.39 357.24 1191.29 354.684 1186.89 349.57C1182.62 344.806 1180.27 338.628 1180.29 332.23C1180.23 326.344 1182.2 320.617 1185.88 316.02C1190.6 309.98 1196.93 306.96 1204.88 306.96C1213.03 306.96 1219.54 310.054 1224.41 316.24C1227.87 320.6 1229.63 326.047 1229.68 332.58H1186.68C1186.61 337.653 1188.52 342.553 1192 346.24C1193.63 347.968 1195.6 349.335 1197.8 350.253C1199.99 351.171 1202.35 351.62 1204.72 351.57C1207.15 351.568 1209.55 351.138 1211.83 350.3C1213.98 349.542 1215.96 348.401 1217.7 346.93C1219.75 344.936 1221.5 342.647 1222.88 340.14ZM1222.88 327.27C1222.26 324.421 1221.03 321.738 1219.29 319.4C1217.61 317.353 1215.48 315.727 1213.06 314.65C1210.51 313.457 1207.73 312.843 1204.92 312.85C1200.46 312.766 1196.13 314.386 1192.82 317.38C1190.36 319.567 1188.5 322.864 1187.24 327.27H1222.88Z" fill="#161E29"/>
<path d="M1312.58 308.19V356.01H1306.51V347.79C1304.15 350.746 1301.18 353.161 1297.81 354.87C1293.23 357.065 1288.07 357.763 1283.07 356.866C1278.07 355.968 1273.48 353.521 1269.95 349.87C1267.61 347.523 1265.77 344.728 1264.53 341.652C1263.3 338.577 1262.69 335.284 1262.76 331.97C1262.71 328.686 1263.33 325.427 1264.57 322.389C1265.82 319.351 1267.68 316.599 1270.02 314.3C1272.26 311.941 1274.97 310.071 1277.97 308.808C1280.97 307.545 1284.2 306.916 1287.46 306.96C1291.17 306.909 1294.83 307.771 1298.12 309.47C1301.46 311.282 1304.33 313.854 1306.49 316.98V308.19H1312.58ZM1287.99 312.87C1284.64 312.845 1281.35 313.725 1278.47 315.416C1275.58 317.108 1273.2 319.549 1271.59 322.48C1269.9 325.417 1269.01 328.747 1269.01 332.135C1269.01 335.524 1269.9 338.853 1271.59 341.79C1273.23 344.772 1275.65 347.253 1278.59 348.97C1281.42 350.66 1284.66 351.548 1287.96 351.54C1291.32 351.543 1294.62 350.664 1297.53 348.99C1300.46 347.395 1302.89 345.008 1304.53 342.1C1306.18 339.104 1307.02 335.73 1306.97 332.31C1307.04 329.749 1306.59 327.2 1305.65 324.816C1304.71 322.433 1303.3 320.264 1301.5 318.44C1299.76 316.623 1297.66 315.189 1295.33 314.229C1293.01 313.27 1290.51 312.807 1287.99 312.87Z" fill="#CA611F"/>
<path d="M1326.5 308.19H1332.66V316.98C1334.84 313.865 1337.71 311.295 1341.04 309.47C1344.31 307.773 1347.94 306.911 1351.62 306.96C1354.87 306.917 1358.1 307.546 1361.1 308.809C1364.1 310.073 1366.81 311.942 1369.05 314.3C1371.39 316.601 1373.24 319.354 1374.49 322.391C1375.74 325.428 1376.35 328.687 1376.3 331.97C1376.37 335.283 1375.76 338.575 1374.53 341.65C1373.3 344.725 1371.46 347.521 1369.12 349.87C1365.6 353.521 1361.02 355.969 1356.02 356.866C1351.03 357.764 1345.88 357.065 1341.31 354.87C1337.96 353.158 1335.01 350.747 1332.66 347.8V373.51H1326.5V308.19ZM1351.11 312.87C1348.61 312.814 1346.12 313.28 1343.81 314.239C1341.5 315.198 1339.41 316.629 1337.68 318.44C1335.88 320.265 1334.47 322.434 1333.53 324.817C1332.6 327.201 1332.15 329.75 1332.22 332.31C1332.17 335.729 1333.01 339.103 1334.65 342.1C1336.29 345.009 1338.72 347.397 1341.65 348.99C1344.57 350.661 1347.87 351.54 1351.23 351.54C1354.51 351.544 1357.73 350.656 1360.55 348.97C1363.49 347.254 1365.91 344.772 1367.55 341.79C1369.24 338.853 1370.13 335.524 1370.13 332.135C1370.13 328.747 1369.24 325.417 1367.55 322.48C1365.94 319.541 1363.55 317.094 1360.66 315.402C1357.76 313.709 1354.46 312.834 1351.11 312.87Z" fill="#CA611F"/>
<path d="M1385.48 308.19H1391.81V315.19C1393.37 312.767 1395.39 310.671 1397.75 309.02C1399.66 307.703 1401.93 306.989 1404.25 306.97C1406.18 307.034 1408.06 307.595 1409.7 308.6L1406.49 313.78C1405.47 313.294 1404.37 313.012 1403.24 312.95C1401.02 313.019 1398.9 313.922 1397.31 315.48C1395.4 317.16 1393.95 319.774 1392.96 323.32C1392.19 326.034 1391.81 331.55 1391.81 339.87V356.05H1385.53L1385.48 308.19Z" fill="#CA611F"/>
<path d="M1437.16 306.96C1440.61 306.878 1444.04 307.551 1447.2 308.933C1450.36 310.315 1453.19 312.372 1455.47 314.96C1459.79 319.745 1462.15 325.979 1462.08 332.422C1462.01 338.866 1459.52 345.048 1455.1 349.74C1450.43 354.74 1444.45 357.24 1437.16 357.24C1429.87 357.24 1423.87 354.74 1419.16 349.74C1414.74 345.056 1412.25 338.882 1412.18 332.444C1412.11 326.007 1414.47 319.78 1418.78 315C1421.07 312.396 1423.9 310.326 1427.08 308.937C1430.25 307.547 1433.69 306.873 1437.16 306.96ZM1437.16 312.96C1434.69 312.935 1432.24 313.427 1429.97 314.403C1427.7 315.379 1425.65 316.819 1423.97 318.63C1422.18 320.432 1420.77 322.573 1419.83 324.928C1418.88 327.282 1418.42 329.803 1418.46 332.34C1418.44 335.727 1419.31 339.059 1420.97 342.01C1422.55 344.901 1424.9 347.297 1427.76 348.93C1430.63 350.53 1433.87 351.37 1437.16 351.37C1440.44 351.37 1443.68 350.53 1446.55 348.93C1449.41 347.3 1451.76 344.903 1453.34 342.01C1455.01 339.062 1455.88 335.728 1455.86 332.34C1455.91 329.8 1455.44 327.277 1454.49 324.921C1453.53 322.566 1452.12 320.426 1450.32 318.63C1448.64 316.824 1446.59 315.389 1444.33 314.417C1442.06 313.444 1439.61 312.955 1437.14 312.98L1437.16 312.96Z" fill="#CA611F"/>
<path d="M1468.01 308.19H1475.39L1488.11 325.68L1500.69 308.19H1508.09L1491.81 330.78L1510.15 356.01H1502.66L1488.11 335.92L1473.64 356.01H1466.3L1484.41 330.87L1468.01 308.19Z" fill="#CA611F"/>
<path d="M1518.81 288.51C1519.48 288.499 1520.14 288.626 1520.76 288.882C1521.38 289.139 1521.94 289.519 1522.4 290C1522.88 290.468 1523.26 291.029 1523.51 291.648C1523.77 292.267 1523.89 292.931 1523.88 293.6C1523.88 294.94 1523.35 296.224 1522.4 297.171C1521.45 298.118 1520.17 298.65 1518.83 298.65C1517.49 298.65 1516.21 298.118 1515.26 297.171C1514.31 296.224 1513.78 294.94 1513.78 293.6C1513.77 292.931 1513.9 292.267 1514.15 291.648C1514.4 291.029 1514.78 290.468 1515.26 290C1515.72 289.522 1516.27 289.143 1516.88 288.887C1517.49 288.631 1518.15 288.502 1518.81 288.51ZM1515.75 308.19H1521.91V356.01H1515.75V308.19Z" fill="#CA611F"/>
<path d="M1534.63 308.19H1540.81V316.45C1542.54 313.81 1544.79 311.542 1547.41 309.78C1550.36 307.948 1553.75 306.971 1557.22 306.96C1559.49 306.953 1561.74 307.416 1563.82 308.32C1565.77 309.136 1567.52 310.376 1568.93 311.95C1570.47 313.874 1571.64 316.073 1572.36 318.43C1574.14 314.969 1576.78 312.024 1580.03 309.88C1582.98 307.971 1586.42 306.957 1589.94 306.96C1593.04 306.904 1596.09 307.778 1598.69 309.47C1601.24 311.173 1603.2 313.616 1604.32 316.47C1605.54 319.463 1606.15 323.947 1606.16 329.92V356.03H1599.81V329.87C1599.81 324.75 1599.45 321.22 1598.72 319.3C1598 317.394 1596.69 315.77 1594.97 314.67C1593.09 313.463 1590.89 312.85 1588.65 312.91C1585.72 312.896 1582.85 313.821 1580.48 315.55C1578.02 317.292 1576.14 319.73 1575.07 322.55C1573.93 325.477 1573.36 330.367 1573.36 337.22V355.95H1567.21V331.53C1567.21 325.757 1566.85 321.837 1566.13 319.77C1565.45 317.738 1564.13 315.983 1562.37 314.77C1560.5 313.494 1558.27 312.84 1556 312.9C1553.13 312.901 1550.33 313.8 1548 315.47C1545.52 317.181 1543.61 319.59 1542.5 322.39C1541.32 325.29 1540.73 329.73 1540.72 335.71V355.97H1534.57L1534.63 308.19Z" fill="#CA611F"/>
<path d="M1666.73 308.19V356.01H1660.66V347.79C1658.31 350.74 1655.35 353.151 1651.99 354.86C1647.41 357.056 1642.25 357.754 1637.25 356.857C1632.25 355.96 1627.65 353.512 1624.12 349.86C1621.78 347.512 1619.94 344.717 1618.71 341.642C1617.47 338.566 1616.87 335.273 1616.94 331.96C1616.89 328.677 1617.51 325.418 1618.75 322.381C1620 319.344 1621.85 316.591 1624.19 314.29C1626.44 311.931 1629.15 310.061 1632.15 308.798C1635.15 307.535 1638.38 306.906 1641.64 306.95C1645.34 306.9 1649 307.762 1652.29 309.46C1655.63 311.272 1658.5 313.844 1660.66 316.97V308.18L1666.73 308.19ZM1642.14 312.87C1638.8 312.843 1635.51 313.723 1632.62 315.415C1629.73 317.107 1627.36 319.548 1625.75 322.48C1624.06 325.417 1623.17 328.747 1623.17 332.135C1623.17 335.524 1624.06 338.853 1625.75 341.79C1627.39 344.774 1629.81 347.256 1632.75 348.97C1635.58 350.661 1638.82 351.549 1642.12 351.54C1645.48 351.541 1648.78 350.662 1651.69 348.99C1654.62 347.396 1657.05 345.009 1658.69 342.1C1660.34 339.105 1661.18 335.73 1661.13 332.31C1661.2 329.75 1660.76 327.201 1659.82 324.817C1658.88 322.434 1657.47 320.265 1655.67 318.44C1653.93 316.621 1651.82 315.186 1649.49 314.227C1647.16 313.268 1644.66 312.806 1642.14 312.87Z" fill="#CA611F"/>
</svg>
